<?xml version="1.0" encoding="utf-8"?>
<!-- Generator: Adobe Illustrator 24.1.2, SVG Export Plug-In . SVG Version: 6.00 Build 0)  -->
<svg version="1.1" xmlns="http://www.w3.org/2000/svg" xmlns:xlink="http://www.w3.org/1999/xlink" x="0px" y="0px"
	 viewBox="0 0 23 23" enable-background="new 0 0 23 23" xml:space="preserve">
<g>
	<path fill="#17B270" d="M11.7,0C5.4,0,0.2,5.2,0.2,11.5C0.2,17.9,5.4,23,11.7,23c6.4,0,11.5-5.1,11.5-11.5C23.2,5.2,18.1,0,11.7,0z
		 M16,9.2C16,9.2,16,9.2,16,9.2l-3.8,6.1c-0.3,0.4-0.8,0.6-1.3,0.4c-0.1,0-0.2-0.1-0.3-0.1l-3.1-2.1c-0.5-0.3-0.6-1-0.3-1.5l0,0
		c0.3-0.5,1-0.6,1.5-0.3l2.3,1.6l3.2-5.2c0.3-0.5,1-0.6,1.5-0.3C16.2,8.1,16.3,8.7,16,9.2z"/>
	<path fill="#FFFFFF" d="M15.7,7.7c-0.5-0.3-1.2-0.2-1.5,0.3L11,13.2l-2.3-1.6c-0.5-0.3-1.2-0.2-1.5,0.3l0,0
		c-0.3,0.5-0.2,1.2,0.3,1.5l3.1,2.1c0.1,0.1,0.2,0.1,0.3,0.1c0.5,0.2,1,0,1.3-0.4L16,9.2c0,0,0,0,0,0C16.3,8.7,16.2,8.1,15.7,7.7z"
		/>
</g>
</svg>
